HIERARCHY
ROOT pelvis
{
  OFFSET 0 100 0
  CHANNELS 6 Xposition Yposition Zposition Zrotation Xrotation Yrotation
  JOINT pelvis_right_femur
  {
    OFFSET -10.78128 -3.44521 -0.5502486
    CHANNELS 3 Zrotation Xrotation Yrotation
    JOINT right_femur_tibia
    {
      OFFSET -0.8047443 -44.0398 -0.1307829
      CHANNELS 3 Zrotation Xrotation Yrotation
      JOINT right_tibia_foot
      {
        OFFSET 3.006224 -47.83518 -5
        CHANNELS 3 Zrotation Xrotation Yrotation
        End Site
        {
          OFFSET 0 -5 15
        }
      }
    }
  }
  JOINT pelvis_left_femur
  {
    OFFSET 10.78128 -3.44521 -0.5502486
    CHANNELS 3 Zrotation Xrotation Yrotation
    JOINT left_femur_tibia
    {
      OFFSET 0.8047443 -44.0398 -0.1307829
      CHANNELS 3 Zrotation Xrotation Yrotation
      JOINT left_tibia_foot
      {
        OFFSET -4.370144 -48.10324 -4.275266
        CHANNELS 3 Zrotation Xrotation Yrotation
        End Site
        {
          OFFSET 0 -5 15
        }
      }
    }
  }
  JOINT pelvis_spine1
  {
    OFFSET 0 6.468898 -3.129235
    CHANNELS 3 Zrotation Xrotation Yrotation
    JOINT spine1
    {
      OFFSET 0 23.15396 4.99043
      CHANNELS 3 Zrotation Xrotation Yrotation
      JOINT spine2
      {
        OFFSET 0 20.79997 -5.064912
        CHANNELS 3 Zrotation Xrotation Yrotation
        JOINT neck
        {
          OFFSET 0 14.38658 9.616178
          CHANNELS 3 Zrotation Xrotation Yrotation
          End Site
          {
            OFFSET 0 20 0
          }
        }
      }
      JOINT right_manubrium
      {
        OFFSET -5.722621 16.35077 3.967754
        CHANNELS 3 Zrotation Xrotation Yrotation
        JOINT right_clavicle
        {
          OFFSET -13.16364 1.694482 -4.693211
          CHANNELS 3 Zrotation Xrotation Yrotation
          JOINT right_humerus
          {
            OFFSET -28.5034 -0.3100689 -2.792744
            CHANNELS 3 Zrotation Xrotation Yrotation
            JOINT right_radius
            {
              OFFSET -25.15693 0.02248979 -1.271978
              CHANNELS 3 Zrotation Xrotation Yrotation
              End Site
              {
                OFFSET -15 0 0
              }
            }
          }
        }
      }
      JOINT left_manubrium
      {
        OFFSET 5.722621 16.35077 3.967754
        CHANNELS 3 Zrotation Xrotation Yrotation
        JOINT left_clavicle
        {
          OFFSET 13.16364 1.694482 -4.693211
          CHANNELS 3 Zrotation Xrotation Yrotation
          JOINT left_humerus
          {
            OFFSET 29.39168 -1.063119 -2.237045
            CHANNELS 3 Zrotation Xrotation Yrotation
            JOINT left_radius
            {
              OFFSET 24.59957 -0.9528479 0.9047498
              CHANNELS 3 Zrotation Xrotation Yrotation
              End Site
              {
                OFFSET 15 -0 -0
              }
            }
          }
        }
      }
    }
  }
}
MOTION
Frames: 11
Frame Time: 0.0416666666667
0 103.5113 0 1.396247 -2.935103 0.1126627 1.543074 -10.42299 6.758022 -0 39.47856 -0 -6.464709 -15.4329 -3.996079 -6.534799 11.55423 -23.01523 -0 5.536883 -0 -0.7508934 -18.65343 22.33966 -0.2813266 -1.659914 4.427735 -0.3759063 7.460019 -7.364852 1.559476 22.07568 8.081512 5.185189 -21.91689 8.60875 5.232503 -18.77752 9.735283 90.04433 36.11998 -24.61546 -0 0 16.88207 -9.331887 10.43154 2.726564 7.291442 -21.60704 -2.521936 -99.16364 42.01142 27.51785 0 0 -26.83044 -9.964896 16.95677 29.70404
0.1781635 103.4333 1.173188 0.896895 -2.5674 0.09135652 2.345722 -12.33373 7.836194 -0 40.49949 -0 -6.07658 -15.8517 -5.132208 -6.072552 11.77007 -23.22295 -0 5.729614 -0 -2.172682 -19.85184 21.894 -0.1477016 -1.671409 4.704528 -0.6523885 7.582313 -7.224704 1.558428 22.08063 8.212982 5.288807 -21.78486 8.694929 5.18521 -18.87968 9.676856 90.11559 36.65056 -24.51153 -0 0 16.89234 -9.893358 10.9507 2.753605 7.54155 -21.88875 -2.32703 -99.12514 41.89378 27.55435 0 0 -27.0323 -9.229449 17.16912 29.09663
0.3584554 103.3122 2.45438 0.1768727 -1.452236 0.02969795 3.967921 -17.85658 9.108753 -0 39.0418 -0 -5.651545 -15.50469 -6.040591 -5.657699 12.36244 -23.41356 -0 5.80726 -0 -1.429363 -21.7935 22.21674 -0.4165084 -1.373239 3.967967 0.3698152 7.297067 -7.510278 1.435346 22.0416 8.101492 5.038583 -22.58101 8.651188 5.518611 -18.16486 10.09849 89.37347 35.88912 -24.22577 -0 0 15.88902 -8.855486 10.12212 3.241799 6.797021 -21.05932 -2.685393 -98.25496 40.93767 26.33318 0 0 -26.01369 -9.179002 16.6558 28.08738
0.5363907 103.0938 3.931707 -0.377852 -0.6175303 -0.01704159 5.203352 -22.13343 9.674156 -0 37.15897 -0 -5.675246 -14.37548 -6.242185 -5.341323 12.84258 -23.39766 -0 5.893731 -0 -0.914419 -23.23758 22.30569 -0.5355451 -1.22879 3.667551 0.8155109 7.189648 -7.620795 1.369123 22.03206 8.06822 4.92863 -22.93474 8.635372 5.658767 -17.83624 10.29445 89.03108 35.64272 -24.04714 -0 0 15.36823 -8.523066 9.848635 3.524592 6.473305 -20.71978 -2.816726 -97.78328 40.39665 25.71025 0 0 -25.5437 -8.968775 16.4398 27.42289
0.7068968 102.7431 5.76784 -0.9373844 0.4367559 -0.02027402 6.494588 -26.89321 9.89974 -0 34.15142 -0 -5.868149 -12.47787 -5.920776 -5.065643 13.42136 -23.15521 -0 5.98781 -0 -0.07951103 -24.51363 22.27037 -0.6995752 -1.056197 3.279671 1.37616 7.05735 -7.77112 1.286937 22.02231 8.010624 4.781516 -23.36106 8.597556 5.821926 -17.432 10.53368 88.63504 35.29835 -23.85346 -0 0 14.71911 -8.106047 9.487187 3.882852 6.059499 -20.29938 -2.992639 -97.19055 39.72846 24.92726 0 0 -24.97033 -8.771188 16.15215 26.66331
0.8588665 102.2467 8.066606 -1.410965 1.538304 0.06296158 7.525741 -31.01669 9.687945 -0 30.63355 -0 -6.126921 -10.2428 -5.238137 -4.83347 13.99215 -22.61045 -0 6.219221 -0 0.3670518 -25.3388 21.72927 -0.8610525 -0.9190421 2.99464 1.813307 6.962574 -7.877443 1.210983 22.03933 7.954899 4.649043 -23.67499 8.545349 5.92649 -17.12746 10.72725 88.30236 35.0886 -23.62 -0 0 14.17453 -7.917207 9.261662 4.240316 5.704845 -19.97372 -3.119015 -96.6794 39.12872 24.2961 0 0 -24.46372 -8.566182 15.92429 26.00573
0.9797398 101.6207 10.94079 -1.833193 2.707829 0.2762154 8.305416 -34.43632 9.075247 -0 26.7424 -0 -6.398242 -7.850954 -4.331571 -4.609499 14.59718 -21.72895 -0 6.851208 -0 0.2261885 -25.60173 20.51218 -1.042213 -0.7911469 2.748056 2.216002 6.885496 -7.966592 1.130107 22.07611 7.892019 4.510138 -23.94459 8.473669 6.002988 -16.85822 10.91289 87.97243 34.945 -23.32747 -0 0 13.64057 -7.873007 9.10491 4.644276 5.347548 -19.67577 -3.227494 -96.16057 38.49972 23.69432 0 0 -23.9413 -8.334621 15.70539 25.34425
1.060382 100.9152 14.45959 -2.20749 3.79619 0.6392664 8.780946 -36.66299 8.145063 -0 23.02014 -0 -6.634521 -5.665587 -3.425625 -4.369656 15.19542 -20.54827 -0 8.249142 -0 -0.7304267 -25.11952 18.57249 -1.238691 -0.6828672 2.569266 2.548747 6.834784 -8.024901 1.048149 22.13729 7.823612 4.371467 -24.14032 8.381836 6.040196 -16.65446 11.07831 87.65263 34.89646 -22.96057 -0 0 13.16412 -8.022276 9.044914 5.085292 5.005601 -19.42516 -3.306082 -95.67147 37.87541 23.18089 0 0 -23.41711 -8.089757 15.51221 24.72624
1.100006 100.2201 18.66775 -2.545556 4.650849 1.139309 8.987703 -37.38254 7.006528 -0 19.84394 -0 -6.814018 -3.910021 -2.686833 -4.099987 15.69805 -19.08019 -0 10.91804 -0 -2.477898 -23.69821 16.03046 -1.451366 -0.5914139 2.456507 2.817551 6.811687 -8.052256 0.9642102 22.22056 7.750168 4.232354 -24.26712 8.270168 6.04272 -16.51198 11.22848 87.32782 34.93707 -22.50628 -0 0 12.74182 -8.368853 9.079687 5.573328 4.674521 -19.21471 -3.356781 -95.20187 37.23769 22.74526 0 0 -22.87695 -7.819652 15.33684 24.1302
1.110617 99.66316 23.55927 -2.843424 5.075675 1.712234 9.028058 -36.3624 5.8773 -0 17.63057 -0 -6.934566 -2.808637 -2.268283 -3.799548 15.91182 -17.40382 -0 15.35576 -0 -4.749999 -21.23457 13.263 -1.676751 -0.5196057 2.421215 3.010326 6.820061 -8.042055 0.8804124 22.32521 7.673307 4.096298 -24.31607 8.140435 6.009399 -16.44121 11.36069 86.99009 35.06949 -21.95101 -0 0 12.39702 -8.93029 9.215968 6.107877 4.361209 -19.04651 -3.376065 -94.76636 36.59353 22.41005 0 0 -22.31823 -7.526049 15.18151 23.56667
1.116249 99.39507 29.07228 -3.059736 4.897883 2.239034 8.990143 -33.56656 4.947261 -0 16.52737 -0 -7.01772 -2.453088 -2.222638 -3.492234 15.5192 -15.58888 -0 21.95689 -0 -7.071704 -17.79881 10.78123 -1.910823 -0.4678375 2.471738 3.120244 6.863071 -7.988266 0.7983895 22.44906 7.595149 3.966249 -24.28349 7.995508 5.941443 -16.44755 11.47494 86.62517 35.29063 -21.27801 -0 0 12.14713 -9.719569 9.456843 6.692948 4.070293 -18.91815 -3.361709 -94.37285 35.93914 22.18805 0 0 -21.7329 -7.201974 15.0444 23.02989
